HIERARCHY
ROOT Hips
{
  OFFSET 5.80788e-005 67.184 3.4734
  CHANNELS 6 Xposition Yposition Zposition Zrotation Xrotation Yrotation
  JOINT Chest
  {
    OFFSET 0 8.7983 -4.7612
    CHANNELS 3 Zrotation Xrotation Yrotation
    JOINT Chest2
    {
      OFFSET 0 8.0291 0.4195
      CHANNELS 3 Zrotation Xrotation Yrotation
      JOINT Chest3
      {
        OFFSET 0 9.9351 -2.2114
        CHANNELS 3 Zrotation Xrotation Yrotation
        JOINT Neck
        {
          OFFSET 0 22.3885 -0.4656
          CHANNELS 3 Zrotation Xrotation Yrotation
          JOINT Head
          {
            OFFSET -0.0001 12.643 3.4389
            CHANNELS 3 Zrotation Xrotation Yrotation
            End Site
            {
              OFFSET 0.0001 17.6655 0.5274
            }
          }
        }
        JOINT LeftCollar
        {
          OFFSET 2.2603 21.606 7.4023
          CHANNELS 3 Zrotation Xrotation Yrotation
          JOINT LeftShoulder
          {
            OFFSET 13.5163 -1.1332 -5.0146
            CHANNELS 3 Zrotation Xrotation Yrotation
            JOINT LeftElbow
            {
              OFFSET -0.0995 -28.05 -0.2431
              CHANNELS 3 Zrotation Xrotation Yrotation
              JOINT LeftWrist
              {
                OFFSET 0.0679 -23.3996 -0.1402
                CHANNELS 3 Zrotation Xrotation Yrotation
                JOINT LeftFinger1
                {
                  OFFSET 0.7932 -9.069 2.5189
                  CHANNELS 3 Zrotation Xrotation Yrotation
                  JOINT LeftFinger11
                  {
                    OFFSET -0.8272 -3.3923 0.5977
                    CHANNELS 3 Zrotation Xrotation Yrotation
                    JOINT LeftFinger12
                    {
                      OFFSET -0.5649 -2.3158 0.4082
                      CHANNELS 3 Zrotation Xrotation Yrotation
                      End Site
                      {
                        OFFSET -0.4919 -1.6479 0.2673
                      }
                    }
                  }
                }
                JOINT LeftFinger2
                {
                  OFFSET 0.9159 -9.2044 0.2193
                  CHANNELS 3 Zrotation Xrotation Yrotation
                  JOINT LeftFinger21
                  {
                    OFFSET 0.0117 -4.1944 -0.0248
                    CHANNELS 3 Zrotation Xrotation Yrotation
                    JOINT LeftFinger22
                    {
                      OFFSET 0.0071 -2.3249 -0.0142
                      CHANNELS 3 Zrotation Xrotation Yrotation
                      End Site
                      {
                        OFFSET -0.1475 -2.0882 0.0028
                      }
                    }
                  }
                }
                JOINT LeftFinger3
                {
                  OFFSET 0.6113 -8.7231 -2.0637
                  CHANNELS 3 Zrotation Xrotation Yrotation
                  JOINT LeftFinger31
                  {
                    OFFSET -0.1927 -3.8059 -0.2383
                    CHANNELS 3 Zrotation Xrotation Yrotation
                    JOINT LeftFinger32
                    {
                      OFFSET -0.1091 -2.1688 -0.1362
                      CHANNELS 3 Zrotation Xrotation Yrotation
                      End Site
                      {
                        OFFSET -0.2358 -1.9176 -0.0906
                      }
                    }
                  }
                }
                JOINT LeftFinger4
                {
                  OFFSET -0.6151 -8.0947 -3.5641
                  CHANNELS 3 Zrotation Xrotation Yrotation
                  JOINT LeftFinger41
                  {
                    OFFSET -0.4882 -2.341 -0.6462
                    CHANNELS 3 Zrotation Xrotation Yrotation
                    JOINT LeftFinger42
                    {
                      OFFSET -0.3575 -1.7167 -0.4742
                      CHANNELS 3 Zrotation Xrotation Yrotation
                      End Site
                      {
                        OFFSET -0.4187 -1.5237 -0.3496
                      }
                    }
                  }
                }
                JOINT LeftFinger0
                {
                  OFFSET -1.42 -1.8761 1.4223
                  CHANNELS 3 Zrotation Xrotation Yrotation
                  JOINT LeftFinger01
                  {
                    OFFSET -1.1471 -3.4929 2.6334
                    CHANNELS 3 Zrotation Xrotation Yrotation
                    JOINT LeftFinger02
                    {
                      OFFSET -0.823 -2.3 1.6571
                      CHANNELS 3 Zrotation Xrotation Yrotation
                      End Site
                      {
                        OFFSET -0.5822 -1.6914 1.1582
                      }
                    }
                  }
                }
              }
            }
          }
        }
        JOINT RightCollar
        {
          OFFSET -2.2603 21.606 7.4023
          CHANNELS 3 Zrotation Xrotation Yrotation
          JOINT RightShoulder
          {
            OFFSET -13.5187 -1.1334 -5.0155
            CHANNELS 3 Zrotation Xrotation Yrotation
            JOINT RightElbow
            {
              OFFSET 0.0994 -28.0499 -0.2431
              CHANNELS 3 Zrotation Xrotation Yrotation
              JOINT RightWrist
              {
                OFFSET -0.0679 -23.3996 -0.1402
                CHANNELS 3 Zrotation Xrotation Yrotation
                JOINT RightFinger1
                {
                  OFFSET -0.7932 -9.0691 2.5189
                  CHANNELS 3 Zrotation Xrotation Yrotation
                  JOINT RightFinger11
                  {
                    OFFSET 0.8272 -3.3923 0.5977
                    CHANNELS 3 Zrotation Xrotation Yrotation
                    JOINT RightFinger12
                    {
                      OFFSET 0.565 -2.3158 0.4082
                      CHANNELS 3 Zrotation Xrotation Yrotation
                      End Site
                      {
                        OFFSET 0.4919 -1.6479 0.2673
                      }
                    }
                  }
                }
                JOINT RightFinger2
                {
                  OFFSET -0.916 -9.2044 0.2193
                  CHANNELS 3 Zrotation Xrotation Yrotation
                  JOINT RightFinger21
                  {
                    OFFSET -0.0117 -4.1944 -0.0248
                    CHANNELS 3 Zrotation Xrotation Yrotation
                    JOINT RightFinger22
                    {
                      OFFSET -0.0071 -2.3249 -0.0142
                      CHANNELS 3 Zrotation Xrotation Yrotation
                      End Site
                      {
                        OFFSET 0.1475 -2.0882 0.0028
                      }
                    }
                  }
                }
                JOINT RightFinger3
                {
                  OFFSET -0.6113 -8.7231 -2.0637
                  CHANNELS 3 Zrotation Xrotation Yrotation
                  JOINT RightFinger31
                  {
                    OFFSET 0.1927 -3.8059 -0.2383
                    CHANNELS 3 Zrotation Xrotation Yrotation
                    JOINT RightFinger32
                    {
                      OFFSET 0.1091 -2.1688 -0.1362
                      CHANNELS 3 Zrotation Xrotation Yrotation
                      End Site
                      {
                        OFFSET 0.2358 -1.9176 -0.0906
                      }
                    }
                  }
                }
                JOINT RightFinger4
                {
                  OFFSET 0.6151 -8.0947 -3.564
                  CHANNELS 3 Zrotation Xrotation Yrotation
                  JOINT RightFinger41
                  {
                    OFFSET 0.4882 -2.341 -0.6462
                    CHANNELS 3 Zrotation Xrotation Yrotation
                    JOINT RightFinger42
                    {
                      OFFSET 0.3574 -1.7166 -0.4742
                      CHANNELS 3 Zrotation Xrotation Yrotation
                      End Site
                      {
                        OFFSET 0.4187 -1.5237 -0.3496
                      }
                    }
                  }
                }
                JOINT RightFinger0
                {
                  OFFSET 1.4199 -1.8761 1.4221
                  CHANNELS 3 Zrotation Xrotation Yrotation
                  JOINT RightFinger01
                  {
                    OFFSET 1.1472 -3.4929 2.6336
                    CHANNELS 3 Zrotation Xrotation Yrotation
                    JOINT RightFinger02
                    {
                      OFFSET 0.8229 -2.3 1.6571
                      CHANNELS 3 Zrotation Xrotation Yrotation
                      End Site
                      {
                        OFFSET 0.5822 -1.6914 1.1582
                      }
                    }
                  }
                }
              }
            }
          }
        }
      }
    }
  }
  JOINT RightHip
  {
    OFFSET -9.412 3.9771 -0.7758
    CHANNELS 3 Zrotation Xrotation Yrotation
    JOINT RightKnee
    {
      OFFSET -0.7531 -40.938 0
      CHANNELS 3 Zrotation Xrotation Yrotation
      JOINT RightAnkle
      {
        OFFSET 0 -40.1986 0
        CHANNELS 3 Zrotation Xrotation Yrotation
        JOINT RightToe
        {
          OFFSET 0 -4.4182 9.239
          CHANNELS 3 Zrotation Xrotation Yrotation
          End Site
          {
            OFFSET 0 0 6.1981
          }
        }
      }
    }
  }
  JOINT LeftHip
  {
    OFFSET 9.4119 3.9773 -0.7758
    CHANNELS 3 Zrotation Xrotation Yrotation
    JOINT LeftKnee
    {
      OFFSET 0.7532 -40.9383 0
      CHANNELS 3 Zrotation Xrotation Yrotation
      JOINT LeftAnkle
      {
        OFFSET 0 -40.1986 0
        CHANNELS 3 Zrotation Xrotation Yrotation
        JOINT LeftToe
        {
          OFFSET 0 -4.4182 9.239
          CHANNELS 3 Zrotation Xrotation Yrotation
          End Site
          {
            OFFSET 0 0 6.1981
          }
        }
      }
    }
  }
}
MOTION
Frames:	6
Frame Time:	0.0333333
5.80788e-005 67.184 3.4734 0 0 -0 0 0 -0 0 0 -0 0 0 -0 0 0 -0 0 0 -0 0 0 -12.5014 88.1196 14.2451 10.6914 -0.00160068 -0.00239207 0.000740045 -8.4365e-005 7.00714e-005 -9.52055e-007 9.93923e-017 -1.98785e-016 -1.59028e-015 9.93923e-017 -5.96354e-016 -1.59028e-015 -9.93923e-017 -5.96354e-016 -1.59028e-015 9.93923e-017 -1.98785e-016 -1.59028e-015 -0.0128176 0.00232552 8.52707e-005 9.93923e-017 5.96354e-016 -0 9.93923e-017 -1.98785e-016 -1.59028e-015 -0.0160551 0.00299681 0.000857156 -2.48481e-016 0 3.18055e-015 9.93923e-017 -1.98785e-016 -1.59028e-015 -0.0125865 0.0031206 0.00282719 0 1.98785e-016 -0 9.93923e-017 -1.98785e-016 -1.59028e-015 9.93923e-017 -5.96354e-016 -1.59028e-015 -9.93923e-017 -5.96354e-016 -1.59028e-015 -0.865644 0.16582 7.03859 -88.0329 10.2057 -10.5567 0.0015593 -0.00248883 -0.000788628 7.87605e-005 4.10553e-005 1.24965e-005 -3.97569e-016 -7.95139e-016 3.18055e-015 -1.98785e-016 -3.97569e-016 3.18055e-015 -1.98785e-016 0 3.18055e-015 -3.97569e-016 -7.95139e-016 3.18055e-015 0.0129473 0.00231697 -8.70038e-005 9.93923e-017 -7.95139e-016 1.59028e-015 -3.97569e-016 -7.95139e-016 3.18055e-015 0.0163314 0.00303369 -0.000872333 3.97569e-016 7.95139e-016 -3.18055e-015 -3.97569e-016 -7.95139e-016 3.18055e-015 0.0145763 0.00367772 -0.00326275 9.93923e-017 -3.97569e-016 -0 -3.97569e-016 -7.95139e-016 3.18055e-015 -1.98785e-016 -3.97569e-016 3.18055e-015 -1.98785e-016 0 3.18055e-015 3.42485 1.36937 -0.0640303 0.000136572 0.69354 0.00145564 -3.42573 -2.06297 -0.0607933 -3.19502e-024 0 -1.48106e-024 -3.42498 1.36123 0.0639712 -6.769e-005 0.712612 -0.0012277 3.42582 -2.07388 0.0612819 2.55305e-023 0 -2.31416e-026 
1.63385 8.20071 11.5579 8.11758e-008 23.9991 -5.03299e-008 0.0682455 17.3873 -0.539145 0.343669 34.7732 -1.19035 0.343664 34.773 -1.19034 5.68281e-005 -48.0046 7.47582e-005 4.73432e-007 -24.0027 3.36139e-007 37.7961 -4.15703 -29.9901 97.6267 -55.9483 72.2353 -1.93853 -67.3726 48.3598 -50.4455 8.61676 2.39831 -9.27119e-006 -4.68599e-006 1.874e-006 1.19271e-014 5.56597e-015 6.36111e-015 2.33259e-007 9.37795e-010 -1.55325e-006 -9.27119e-006 -4.68599e-006 1.874e-006 -0.0127957 0.00232164 8.36312e-005 -2.33471e-007 -1.98409e-006 1.55324e-006 -9.27119e-006 -4.68599e-006 1.874e-006 -0.0160119 0.00299741 0.000859 2.38542e-015 -8.99742e-007 -6.36111e-015 -9.27119e-006 -4.68599e-006 1.874e-006 -0.0125839 0.0031285 0.00282564 2.38542e-015 9.30117e-010 -0 -9.27119e-006 -4.68599e-006 1.874e-006 1.19271e-014 5.56597e-015 6.36111e-015 2.33259e-007 9.37795e-010 -1.55325e-006 -19.2539 -2.27626 15.2115 -130.367 -59.4439 -44.5343 14.4404 -47.0006 -47.892 60.6595 -40.9481 16.6375 7.07545e-006 4.02011e-007 3.53132e-006 -8.69255e-008 -1.76828e-006 1.60227e-006 -7.7526e-015 2.38542e-015 -3.18055e-015 7.07545e-006 4.02011e-007 3.53132e-006 0.0129644 0.00231598 -8.34914e-005 -1.72943e-014 -1.80624e-006 3.18055e-015 7.07545e-006 4.02011e-007 3.53132e-006 0.0163655 0.00303978 -0.000879237 2.78299e-015 1.59028e-015 9.54166e-015 7.07545e-006 4.02011e-007 3.53132e-006 0.0146089 0.00367877 -0.00326348 -4.31288e-006 2.9277e-006 4.22836e-006 7.07545e-006 4.02011e-007 3.53132e-006 -8.69255e-008 -1.76828e-006 1.60227e-006 -7.7526e-015 2.38542e-015 -3.18055e-015 -65.4391 -6.0906 -27.0737 -129.719 87.9718 128.391 -3.01245 -3.77586 -1.33981 -1.69986e-006 -1.79292e-006 -1.34805e-006 65.4225 -6.09565 27.0697 129.735 87.9714 -128.412 3.01278 -3.77662 1.33983 5.11317e-006 -5.2826e-006 1.45051e-006 
1.63383 8.29373 11.9428 5.92915e-008 23.7213 1.20806e-007 0.0821323 17.4878 -0.551961 0.38015 34.9739 -1.22456 0.380143 34.9737 -1.22455 5.81939e-005 -48.0046 7.83569e-005 0.24426 -24.2013 0.133014 38.7605 -2.19897 -29.8079 99.6518 -55.5488 73.7847 -2.24899 -67.4224 48.0495 -49.7722 7.55805 1.19602 -4.70375e-007 -2.12998e-007 3.10211e-006 4.70375e-007 2.12998e-007 -3.10211e-006 7.95139e-016 3.18055e-015 -3.18055e-015 -4.70375e-007 -2.12998e-007 3.10211e-006 -0.0128301 0.00232828 8.27954e-005 -1.84104e-006 1.12397e-007 1.5599e-006 -4.70375e-007 -2.12998e-007 3.10211e-006 -0.016059 0.00298863 0.000860251 4.77083e-015 -1.59028e-015 -0 -4.70375e-007 -2.12998e-007 3.10211e-006 -0.0126334 0.00312802 0.00283969 1.47101e-014 1.59028e-015 9.54166e-015 -4.70375e-007 -2.12998e-007 3.10211e-006 4.70375e-007 2.12998e-007 -3.10211e-006 7.95139e-016 3.18055e-015 -3.18055e-015 -19.2283 -2.08342 15.4822 -130.367 -59.4439 -44.5342 14.4404 -47.0006 -47.892 60.6595 -40.9481 16.6375 -2.18663e-015 -1.19271e-015 -0 9.89186e-006 -4.32212e-007 4.45374e-006 -8.85426e-006 2.96839e-006 -1.14936e-007 -2.18663e-015 -1.19271e-015 -0 0.0129769 0.00231895 -7.89199e-005 9.93923e-016 0 -3.18055e-015 -2.18663e-015 -1.19271e-015 -0 0.0163337 0.00303596 -0.000870409 8.54774e-015 0 -3.18055e-015 -2.18663e-015 -1.19271e-015 -0 0.0145823 0.00367908 -0.00326222 -8.94531e-016 -7.95139e-016 -0 -2.18663e-015 -1.19271e-015 -0 9.89186e-006 -4.32212e-007 4.45374e-006 -8.85426e-006 2.96839e-006 -1.14936e-007 -65.0748 -5.5634 -26.6711 -113.636 88.354 112.334 -2.97221 -3.64167 -1.50045 -3.20043e-006 5.11259e-006 -6.41722e-006 65.0375 -5.57444 26.6445 113.62 88.3535 -112.322 2.95385 -3.64274 1.52331 9.93923e-017 3.97569e-016 -8.30547e-015 
1.63382 8.38692 12.3278 1.65721e-007 23.4435 -2.57848e-007 0.0959428 17.5883 -0.564973 0.416685 35.1746 -1.25932 0.416678 35.1744 -1.25931 5.96085e-005 -48.0046 8.01109e-005 0.489549 -24.3996 0.26724 39.7236 -0.226306 -29.658 101.487 -55.0539 75.1687 -2.61046 -67.5716 47.7278 -49.1208 6.48194 0.00498696 -5.1684e-015 -1.59028e-015 3.18055e-015 -4.37326e-015 -1.59028e-015 3.18055e-015 -4.77083e-015 -3.18055e-015 3.18055e-015 -5.1684e-015 -1.59028e-015 3.18055e-015 -0.01283 0.00233069 8.80025e-005 1.11319e-014 6.36111e-015 -3.18055e-015 -5.1684e-015 -1.59028e-015 3.18055e-015 -0.0160328 0.00300018 0.000855781 4.77083e-015 -1.59028e-015 -0 -5.1684e-015 -1.59028e-015 3.18055e-015 -0.0125744 0.0031158 0.0028289 -7.95139e-016 -3.18055e-015 6.36111e-015 -5.1684e-015 -1.59028e-015 3.18055e-015 -4.37326e-015 -1.59028e-015 3.18055e-015 -4.77083e-015 -3.18055e-015 3.18055e-015 -19.2037 -1.89042 15.7528 -130.367 -59.4439 -44.5344 14.4405 -47.0005 -47.892 60.6595 -40.9481 16.6374 1.77178e-005 -5.77551e-006 5.80591e-008 -1.19271e-015 1.79802e-006 -9.54166e-015 2.98177e-016 3.97569e-016 -3.18055e-015 1.77178e-005 -5.77551e-006 5.80591e-008 0.0129486 0.0023217 -8.7135e-005 6.75494e-008 8.96089e-007 -1.6111e-006 1.77178e-005 -5.77551e-006 5.80591e-008 0.0163353 0.00304185 -0.000873602 1.49089e-015 1.19271e-015 3.18055e-015 1.77178e-005 -5.77551e-006 5.80591e-008 0.0146185 0.0037001 -0.00326997 1.78906e-015 7.95139e-016 -0 1.77178e-005 -5.77551e-006 5.80591e-008 -1.19271e-015 1.79802e-006 -9.54166e-015 2.98177e-016 3.97569e-016 -3.18055e-015 -64.7138 -5.03367 -26.2723 -90.937 88.5442 89.6608 -2.93164 -3.50771 -1.66132 9.93923e-017 -3.97569e-016 2.45064e-015 64.6561 -5.05025 26.2232 90.8831 88.5429 -89.6119 2.89455 -3.50913 1.7071 -1.98785e-016 -7.95139e-016 -4.42606e-015 
1.63381 8.48026 12.7127 2.28277e-008 23.1657 -8.11996e-008 0.109786 17.6887 -0.578078 0.453478 35.3753 -1.29445 0.45347 35.375 -1.29444 5.87444e-005 -48.0046 8.12228e-005 0.735871 -24.5975 0.402688 40.6872 1.75907 -29.5407 103.352 -54.5624 76.5676 -2.9524 -67.6738 47.4072 -48.4913 5.38936 -1.17487 -7.95139e-016 1.59028e-015 3.18055e-015 -2.39615e-007 -1.91342e-006 1.54711e-006 -4.79231e-007 1.69451e-006 3.09421e-006 -7.95139e-016 1.59028e-015 3.18055e-015 -0.0127954 0.00232783 8.39845e-005 -2.32929e-006 -9.1146e-007 4.64264e-006 -7.95139e-016 1.59028e-015 3.18055e-015 -0.0160146 0.00299092 0.000853313 5.53301e-007 2.64451e-006 4.53945e-006 -7.95139e-016 1.59028e-015 3.18055e-015 -0.0125367 0.00310731 0.00282117 5.18818e-006 3.27409e-006 1.23988e-006 -7.95139e-016 1.59028e-015 3.18055e-015 -2.39615e-007 -1.91342e-006 1.54711e-006 -4.79231e-007 1.69451e-006 3.09421e-006 -19.1799 -1.69724 16.0233 -130.366 -59.4439 -44.534 14.4404 -47.0007 -47.8919 60.6595 -40.9481 16.6375 2.08724e-015 0 6.36111e-015 -7.45443e-015 8.97794e-007 6.36111e-015 1.98785e-015 3.18055e-015 6.36111e-015 2.08724e-015 0 6.36111e-015 0.0129442 0.00232178 -8.81507e-005 2.98177e-015 -1.19271e-015 -0 2.08724e-015 0 6.36111e-015 0.0163276 0.00304211 -0.000870176 6.06293e-015 1.19271e-015 -0 2.08724e-015 0 6.36111e-015 0.0145944 0.00368547 -0.00326503 -2.78299e-015 8.97751e-007 6.36111e-015 2.08724e-015 0 6.36111e-015 -7.45443e-015 8.97794e-007 6.36111e-015 1.98785e-015 3.18055e-015 6.36111e-015 -64.3564 -4.50122 -25.8772 -66.4138 88.469 65.1634 -2.8908 -3.37405 -1.82243 9.93923e-017 0 3.0998e-015 64.2784 -4.52302 25.8059 66.3627 88.4663 -65.1173 2.83491 -3.37592 1.8911 -1.87261e-008 -5.25192e-006 2.59073e-006 
1.63379 8.57375 13.0976 7.39477e-009 22.8878 -1.86882e-009 0.123663 17.7892 -0.59128 0.49053 35.576 -1.32996 0.490524 35.5758 -1.32995 5.90741e-005 -48.0047 8.40404e-005 0.983234 -24.7949 0.539359 41.6526 3.75517 -29.4564 105.186 -54.0488 77.9322 -3.29393 -67.7681 47.0845 -47.884 4.28128 -2.34375 -1.76556e-031 1.59028e-015 6.36111e-015 -1.98785e-015 3.18055e-015 3.18055e-015 -1.98785e-015 0 -0 -1.76556e-031 1.59028e-015 6.36111e-015 -0.0128068 0.00231948 8.47282e-005 -1.59028e-015 1.59028e-015 9.54166e-015 -1.76556e-031 1.59028e-015 6.36111e-015 -0.0160457 0.00299362 0.000855574 -2.78299e-015 -1.69359e-006 3.18055e-015 -1.76556e-031 1.59028e-015 6.36111e-015 -0.0125475 0.00311177 0.00282059 4.84503e-007 3.00155e-007 -3.09081e-006 -1.76556e-031 1.59028e-015 6.36111e-015 -1.98785e-015 3.18055e-015 3.18055e-015 -1.98785e-015 0 -0 -19.1571 -1.50397 16.2938 -130.367 -59.4439 -44.5343 14.4404 -47.0005 -47.892 60.6595 -40.9481 16.6375 6.4605e-015 -1.19271e-015 3.18055e-015 2.78299e-015 1.78906e-015 -3.18055e-015 2.18663e-015 9.09627e-007 3.18055e-015 6.4605e-015 -1.19271e-015 3.18055e-015 0.0129555 0.00231651 -8.5282e-005 -4.87022e-015 9.11886e-007 -3.18055e-015 6.4605e-015 -1.19271e-015 3.18055e-015 0.0163692 0.0030436 -0.000874716 -3.47873e-015 -2.22618e-009 -0 6.4605e-015 -1.19271e-015 3.18055e-015 0.0145499 0.00367153 -0.00325829 1.22248e-006 -1.20272e-006 1.04025e-006 6.4605e-015 -1.19271e-015 3.18055e-015 2.78299e-015 1.78906e-015 -3.18055e-015 2.18663e-015 9.09627e-007 3.18055e-015 -64.0022 -3.96613 -25.486 -47.2326 88.1604 46.0074 -2.84964 -3.24068 -1.98376 -1.98785e-016 -1.19271e-014 5.15598e-015 63.9041 -3.99295 25.3924 47.2067 88.1562 -45.9864 2.77494 -3.24303 2.07535 -7.26225e-006 4.9609e-006 1.37244e-005 
